<svg width="93" height="40" viewBox="0 0 93 40" fill="none" xmlns="http://www.w3.org/2000/svg">
<path d="M1.79507 0.118391C0.916539 0.378446 0.227167 1.12457 0.0606601 2.04214C-0.0665208 2.7433 0.0457745 3.56192 0.0457745 4.2747V8.81685V30.5502V36.0123C0.0457745 37.0826 -0.0843965 38.1134 0.546561 39.0321C1.15596 39.9194 2.36342 39.9795 3.32303 39.9795H9.59005H29.4261H35.2331C36.362 39.9795 37.5317 40.107 38.6095 39.7262C39.5724 39.386 39.7528 38.4728 39.9886 37.6386C40.1798 36.9621 40.0627 36.1393 40.0627 35.4373V31.0677V9.10433V3.69974C40.0627 2.80597 40.1048 1.6832 39.5003 0.942017C38.7012 -0.0378823 37.6431 0.0775164 36.498 0.0775164H30.4035H10.625H4.58793C3.74246 0.0775164 2.6057 -0.121617 1.79507 0.118391ZM58.0014 0.0775164V7.89692V9.90927L58.0773 10.6629L58.8063 10.7717H60.7612V7.78193C60.7612 7.22313 60.718 6.55394 60.9578 6.03498C61.3476 5.19083 62.5993 4.77192 63.2691 5.54167C64.0068 6.39014 63.636 8.2879 63.636 9.33431C63.636 9.64025 63.4888 10.4832 63.7446 10.6959C63.9194 10.8407 64.288 10.7717 64.4984 10.7717H66.3958V6.97699C66.3958 5.97731 66.4544 5.06146 65.9214 4.17327C65.2361 3.03066 64.0574 2.83725 62.831 2.83731C62.271 2.83736 61.3459 3.04814 60.9912 3.52725H60.9337H60.8762C60.5042 2.55707 60.7612 1.1137 60.7612 0.0775164H58.0014ZM47.9971 0.652471V2.83731H50.182C50.416 2.83731 50.8104 2.76371 50.9932 2.94615C51.3169 3.26985 51.1019 4.52365 51.1019 4.96464V10.7717H53.9767V4.96464C53.9767 4.52365 53.7617 3.26985 54.0854 2.94615C54.2682 2.76371 54.6626 2.83731 54.8966 2.83731H57.0815V0.652471H47.9971ZM70.6504 7.55195H76.285C76.285 6.37271 76.2821 5.2408 75.4927 4.27677C74.0318 2.49227 70.9736 2.30495 69.2153 3.7447C68.3857 4.42378 68.0459 5.23671 67.8021 6.24599C67.6934 6.69434 67.7958 7.1776 67.8757 7.61456C68.3173 10.0205 70.4377 10.8867 72.6628 10.8867C73.4999 10.8867 74.4963 10.7075 75.1546 10.1393C75.3099 10.0055 75.6778 9.86397 75.6778 9.62179C75.6778 9.47328 75.5174 9.35277 75.4226 9.25767C75.1661 9.00049 74.6556 8.2638 74.2727 8.25696C73.8736 8.24983 73.382 8.66253 72.9911 8.77597C72.1482 9.0209 70.716 8.55617 70.6504 7.55195ZM73.6402 6.05706H70.5354C70.7562 4.40044 73.6345 4.33633 73.6402 6.05706ZM17.2945 6.28704H17.5245C17.5716 5.96645 17.9836 5.70864 18.2606 5.56289C18.9638 5.19301 19.9827 4.85437 20.7853 5.0483C21.5366 5.22987 22.252 5.42398 22.8695 5.92954C23.9225 6.79163 24.5168 8.57049 24.1675 9.89266C23.2567 13.3402 18.6699 14.0241 16.8488 10.9307C16.2452 9.9053 16.2229 8.55341 16.6453 7.46196C16.8045 7.05081 17.1899 6.69297 17.2945 6.28704ZM20.0786 6.44286C18.8609 6.79019 18.0136 7.36566 17.7693 8.71164C17.4567 10.4347 19.3156 11.8227 20.9003 11.4355C22.1219 11.137 23.0287 9.86212 22.7992 8.59665C22.6017 7.5086 21.3076 6.09236 20.0786 6.44286ZM20.8592 7.32196C20.9581 7.76554 21.1057 8.21355 20.6431 8.51368C20.4433 8.64327 20.1655 8.64011 20.0145 8.84928C19.705 9.27831 19.427 10.1287 18.735 9.51916C18.4197 9.24134 18.5206 8.53202 18.6859 8.1959C19.1285 7.29575 19.9549 7.12038 20.8592 7.32196ZM26.8962 13.9915H26.9537C27.2278 14.2059 27.51 14.2598 27.6768 14.6129C28.0144 15.327 27.9229 17.2212 26.7864 17.0887C25.8135 16.9754 25.8199 15.0575 26.222 14.4376C26.3898 14.179 26.6472 14.1316 26.8962 13.9915ZM13.3437 14.4776C16.5057 13.7131 19.3177 16.9571 18.7745 19.9612C18.4229 21.9051 16.9097 23.2865 15.0358 23.7396C12.2836 24.4049 9.47558 21.9044 9.47558 19.1661C9.47558 16.8572 11.1724 15.0025 13.3437 14.4776ZM47.9971 15.1414V25.2606H50.642V20.201C50.9323 20.426 51.0657 20.7903 51.2577 21.0936C51.7809 21.9197 52.2507 22.7919 52.8113 23.5932C53.1896 24.1338 53.741 24.7179 54.5189 24.2914C54.8311 24.1202 55.0639 23.4292 55.2313 23.122C55.6055 22.434 56.0465 21.7552 56.4657 21.0936C56.6905 20.7385 56.8463 20.3404 57.1965 20.086V25.2606H59.8413L59.7263 15.1414C59.1191 15.1414 58.0031 14.9239 57.4563 15.1898C57.0395 15.3924 56.8153 16.1887 56.5807 16.5653C56.0563 17.4074 55.605 18.315 55.057 19.1388C54.7213 19.6446 54.1733 20.2764 54.0917 20.8909C53.576 20.7581 53.3764 20.0168 53.1022 19.6106C52.4117 18.5856 51.7965 17.5005 51.1427 16.4503C50.9237 16.0979 50.7518 15.472 50.4189 15.2169C50.2452 15.0836 49.9273 15.1414 49.722 15.1414H47.9971ZM71.6854 15.7163V17.6712L70.6441 17.747L70.5354 18.3036V19.741H71.6854C71.6854 21.1159 71.3082 23.2439 72.2477 24.3961C73.0486 25.3779 74.2065 25.3756 75.3651 25.3756C75.7296 25.3756 76.4839 25.3851 76.6955 24.998C76.9399 24.5511 76.2741 23.543 76.17 23.0758C75.6957 23.139 75.3392 23.4823 74.862 23.1489C74.2175 22.6983 74.4451 21.3818 74.4451 20.7185C74.4451 20.4736 74.3635 20.0406 74.5538 19.8499C74.8476 19.5564 75.8894 19.741 76.285 19.741V17.6712H74.4451V15.7163H71.6854ZM13.9839 15.8724C12.5339 16.266 11.391 16.8193 10.9961 18.4351C10.4052 20.8531 12.8088 22.7942 15.0358 22.2447C16.5699 21.8661 17.6795 20.1712 17.3946 18.6009C17.1414 17.2056 16.0157 16.0527 14.593 15.9433C14.3779 15.9267 14.2014 15.8134 13.9839 15.8724ZM14.1322 16.5213H14.1897C14.3403 16.6391 14.5254 16.6729 14.6684 16.8098C15.6599 17.7593 13.7906 18.0275 13.404 18.4187C12.9739 18.8538 13.1905 19.8494 12.3498 19.8498C12.1917 19.8499 12.0421 19.775 11.8899 19.741C11.8357 19.5021 11.677 19.2976 11.6633 19.049C11.6245 18.3452 12.163 17.3574 12.7659 16.9956C13.1988 16.7358 13.7156 16.753 14.1322 16.5213ZM26.1488 17.0962C26.2195 17.4137 26.3829 17.8354 26.1903 18.1449C25.772 18.8175 24.0412 18.7818 23.496 18.2887C22.9547 17.7992 23.4378 16.9156 24.0812 16.8694C24.3654 16.849 24.6566 16.8665 24.9414 16.8665C25.4114 16.8665 25.7099 16.9967 26.1488 17.0962ZM28.1778 16.8929C28.6567 16.7661 29.7268 16.7428 30.146 17.0225C30.9629 17.5676 30.3453 18.3927 29.6396 18.5652C29.1565 18.6832 28.2312 18.6883 27.8185 18.3729C27.2527 17.9404 27.5263 17.0654 28.1778 16.8929ZM64.81 17.3673C63.7981 17.6583 62.8954 17.8996 62.1629 18.7263C60.7307 20.3441 60.9595 23.1981 62.7017 24.5006C63.9413 25.4277 65.7662 25.6551 67.2415 25.2347C69.8162 24.5009 70.9235 21.2872 69.4597 19.0788C68.8353 18.1372 67.794 17.6842 66.7505 17.4155C66.2072 17.2757 65.3585 17.2095 64.81 17.3673ZM80.6788 17.3673C79.9509 17.5767 79.1908 17.7494 78.605 18.2684C76.9134 19.7662 76.58 22.6544 78.3468 24.2685C79.5933 25.4074 81.5223 25.6555 83.1109 25.2349C85.9414 24.4853 86.8717 21.0634 85.1842 18.8067C84.5546 17.9652 83.5789 17.6627 82.6193 17.4155C82.076 17.2757 81.2273 17.2095 80.6788 17.3673ZM89.969 18.2464C89.969 18.0467 90.0305 17.7153 89.8931 17.5503C89.6654 17.2764 88.6908 17.4414 88.3591 17.4414C88.0981 17.4414 87.4719 17.3208 87.3535 17.6337C87.1258 18.2377 87.3242 19.2675 87.3242 19.9137V25.2608H90.084V22.0411C90.084 21.194 90.2041 20.2933 91.0798 19.9044C91.5541 19.6939 92.109 19.7413 92.6138 19.7413V17.3264C91.9221 17.3264 91.3259 17.4256 90.7049 17.7522C90.4335 17.895 90.2702 18.1687 89.969 18.2464ZM26.7971 18.2738C27.1584 18.191 27.537 18.572 27.6768 18.8678C27.9792 19.5074 27.9366 21.1719 27.0589 21.3362C25.6483 21.6002 25.6224 18.5433 26.7971 18.2738ZM65.32 19.5374C67.4439 19.0183 68.1385 22.6529 66.2066 23.1645C63.8729 23.7825 63.1087 20.0778 65.32 19.5374ZM81.3038 19.5374C83.4306 19.0176 84.0602 22.7383 82.1392 23.175C79.7606 23.7157 79.073 20.0826 81.3038 19.5374ZM22.0832 23.4474C22.4296 23.3559 22.86 23.421 23.2165 23.421C26.2107 23.421 28.6932 25.8551 28.9055 28.8278C29.1 31.5518 27.1972 34.0862 24.58 34.7792C21.0555 35.7126 17.4116 32.8642 17.4116 29.2281C17.4116 26.4014 19.4121 24.1531 22.0832 23.4474ZM22.8384 24.8417C21.4094 25.2518 20.048 25.6564 19.3311 27.1472C19.0583 27.7146 18.7956 28.5439 18.7956 29.1706C18.7956 31.8756 21.5156 34.0417 24.12 33.3991C26.6281 32.7802 27.9231 30.32 27.2728 27.8646C26.8521 26.2757 25.3197 25.098 23.7362 24.9085C23.4184 24.8704 23.1679 24.7471 22.8384 24.8417ZM21.7791 27.9057L21.475 28.5539L21.2042 29.7455C20.9386 29.8047 20.6901 29.909 20.4098 29.8445C19.6964 29.6806 19.9532 28.689 20.0802 28.2095C20.3102 27.3411 21.0354 26.5601 21.8545 26.207C22.4187 25.9638 24.4127 25.6824 23.8005 26.956C23.5574 27.4617 22.925 27.3339 22.4943 27.5064C22.2244 27.6145 22.0732 27.8628 21.7791 27.9057ZM13.2698 26.2958C13.2878 26.5728 13.3842 26.8177 13.3848 27.1007C13.3856 27.5211 12.9763 28.6318 12.4254 27.9129C12.209 27.6305 12.2543 26.4548 12.5663 26.2543C12.7934 26.1084 13.0383 26.2442 13.2698 26.2958ZM12.3498 28.0207V28.9406C11.8032 28.9761 11.3593 29.1548 10.8153 28.9144C10.4646 28.7593 10.3977 28.2503 10.7698 28.0692C11.1664 27.8762 11.9124 28.0207 12.3498 28.0207ZM14.9946 28.0207C15.0427 28.2361 15.1676 28.4611 15.0612 28.6808C14.8142 29.1903 13.768 29.1768 13.3775 28.8654C13.0046 28.5679 13.2391 28.0389 13.6731 28.0218C13.8448 28.015 14.0179 28.0208 14.1897 28.0208L14.9946 28.0207ZM12.7638 28.8596C13.6022 28.7379 13.6457 30.6921 12.8628 30.7719C12.1133 30.8483 12.0992 28.9561 12.7638 28.8596ZM87.6691 39.7499C88.3338 39.8981 88.9973 39.8649 89.6815 39.8649C89.8919 39.8649 90.2605 39.9339 90.4353 39.7892C90.7377 39.5378 90.5439 38.3411 90.5439 37.9676C90.5439 36.6065 90.6624 35.1591 90.2875 33.8445C90.1547 33.3778 89.7355 33.0539 89.624 32.6205C89.2669 32.5285 88.995 32.1972 88.631 32.0689C87.3253 31.6086 86.0265 31.8291 84.9094 32.6205V29.0557H82.8395C82.6348 29.0557 82.2588 28.9855 82.1105 29.1646C81.9817 29.3195 82.0346 29.617 82.0346 29.8032V31.3556V37.4501V39.1175C82.0346 39.3816 82.015 39.6805 82.2944 39.8165C82.5762 39.9535 83.0499 39.8649 83.357 39.8649C83.6801 39.8649 84.6109 40.0241 84.8335 39.756C85.0479 39.4979 84.9094 38.7491 84.9094 38.4275C84.9094 37.4923 84.6897 36.2368 84.9502 35.3392C85.1991 34.4819 86.111 33.9763 86.9688 34.2597C87.5409 34.4489 87.6691 35.1587 87.6691 35.6677L87.6691 39.7499ZM47.9971 29.7457V29.8032V29.8607L48.7107 31.9723L50.3855 36.9998L50.9794 38.8876L51.2922 39.7561L51.9643 39.865H53.6892L54.3642 39.7569L54.9196 38.1476L55.8395 35.3878L56.2765 33.7704C56.679 34.0822 56.7129 34.6873 56.8589 35.1429C57.2045 36.2185 57.5121 37.3063 57.8634 38.3776C57.983 38.7435 58.1238 39.6378 58.4912 39.8165C59.0248 40.0762 60.1115 39.865 60.7037 39.865C60.9112 39.865 61.2183 39.9204 61.3787 39.7569C61.7926 39.3345 61.8703 38.4609 62.0491 37.9176C62.5705 36.3345 63.0299 34.7336 63.5629 33.1546C63.8498 32.3043 64.2707 31.4313 64.4449 30.5507C64.4851 30.3493 64.7163 29.9713 64.6185 29.7764C64.5214 29.5835 64.2132 29.6308 64.0384 29.6308H62.5435C62.3693 29.6308 62.1146 29.5912 61.9864 29.7396C61.6736 30.1017 61.546 30.943 61.4103 31.3967C61.0567 32.5786 60.5847 33.7207 60.2753 34.9108C60.1822 35.2696 59.9671 35.5811 59.9562 35.9553H59.7262L59.2921 34.4508L58.2889 31.2164L57.7777 29.7065L57.0239 29.6308H55.1266C55.0984 30.0631 54.8345 30.5027 54.7074 30.9201C54.3878 31.9723 53.9387 33.0117 53.6576 34.0743C53.5265 34.5697 53.3431 35.6413 52.9418 35.9553C52.7463 34.4882 51.8971 33.0927 51.5757 31.6388C51.4716 31.168 51.275 30.0098 50.8788 29.7063C50.6948 29.5651 50.3424 29.6308 50.1245 29.6308C49.5012 29.6308 48.5583 29.4538 47.9971 29.7457ZM65.0158 32.6205C65.0173 33.1557 65.3217 33.6007 65.5563 34.0694C65.6293 34.2149 65.7121 34.4957 65.8926 34.5382C66.1192 34.5915 66.5159 34.2067 66.7505 34.1416C67.6911 33.8804 69.6 33.74 69.6155 35.1503C68.6225 35.1503 67.5502 35.0555 66.5849 35.2915C65.999 35.4345 65.5563 35.9311 65.0158 36.0703C64.9003 36.5786 64.5622 37.0186 64.5622 37.5652C64.5622 39.7703 67.2012 40.1952 68.8514 39.7238C69.2625 39.6065 69.4424 39.1639 69.8455 39.06C69.8455 39.2597 69.784 39.5912 69.9214 39.7561C70.149 40.03 71.1236 39.865 71.4554 39.865C71.7037 39.865 72.2942 39.9761 72.4408 39.717C72.5547 39.5166 72.4903 39.1676 72.4903 38.9451V37.0477C72.4903 36.2321 72.5046 35.3845 72.3603 34.5852C71.8555 31.7921 68.7565 31.5075 66.4699 32.0717C65.9639 32.1965 65.5137 32.5077 65.0158 32.6205ZM78.2398 37.7951C77.3561 37.912 76.5431 37.9433 75.6577 37.7803C75.3122 37.7166 74.7728 37.3024 74.4537 37.3543C74.2427 37.3886 74.2232 37.6073 74.1548 37.7701C74.0162 38.1003 73.393 38.9434 73.7857 39.2481C74.5107 39.8106 75.7049 39.865 76.5725 39.865C78.126 39.865 80.358 39.845 80.8582 37.951C80.9416 37.6347 80.9047 37.2027 80.8818 36.8774C80.7754 35.3893 78.7446 35.0435 77.6074 34.9183C77.2923 34.8836 76.2154 34.7538 76.3223 34.239C76.3821 33.9514 76.9617 33.8067 77.2072 33.7778C78.1231 33.6702 79.0137 34.0239 79.8497 34.3454C79.9618 33.8502 80.3148 32.9966 80.6546 32.6205V32.563C80.1769 32.0493 79.2345 31.9992 78.5871 31.9232C76.799 31.7131 73.7552 31.9682 73.7552 34.4029C73.7552 34.6694 73.7097 34.9845 73.7971 35.2401C74.2329 36.5169 75.7658 36.6601 76.8697 36.8603C77.5315 36.9803 78.3497 36.9417 78.2398 37.7951ZM69.6155 36.6452C69.6155 36.9323 69.6598 37.2523 69.5338 37.5187C69.2314 38.1586 68.1292 38.4902 67.5657 38.0028C67.0517 37.5584 67.3404 36.8562 67.9153 36.6861C68.0941 36.6331 68.281 36.6452 68.4656 36.6452L69.6155 36.6452Z" fill="#3570B5"/>
</svg>
