<svg width="149" height="64" viewBox="0 0 149 64" fill="none" xmlns="http://www.w3.org/2000/svg">
<path d="M2.87212 0.189426C1.46646 0.605513 0.363467 1.79931 0.0970562 3.26743C-0.106433 4.38928 0.0732391 5.69908 0.0732391 6.83952V14.107V48.8803V57.6197C0.0732391 59.3321 -0.135034 60.9814 0.874498 62.4513C1.84953 63.8711 3.78148 63.9672 5.31684 63.9672H15.3441H47.0817H56.373C58.1792 63.9672 60.0508 64.1712 61.7753 63.5619C63.3158 63.0176 63.6045 61.5565 63.9817 60.2218C64.2877 59.1393 64.1004 57.8229 64.1004 56.6997V49.7083V14.5669V5.91959C64.1004 4.48955 64.1677 2.69311 63.2005 1.50723C61.9219 -0.0606117 60.229 0.124026 58.3968 0.124026H48.6456H17H7.34069C5.98793 0.124026 4.16913 -0.194588 2.87212 0.189426ZM92.8022 0.124026V12.6351V15.8548L92.9237 17.0606L94.0901 17.2347H97.2179V12.4511C97.2179 11.557 97.1488 10.4863 97.5325 9.65597C98.1562 8.30533 100.159 7.63507 101.231 8.86667C102.411 10.2242 101.818 13.2606 101.818 14.9349C101.818 15.4244 101.582 16.7731 101.991 17.1135C102.271 17.3451 102.861 17.2347 103.197 17.2347H106.233V11.1632C106.233 9.5637 106.327 8.09834 105.474 6.67724C104.378 4.84906 102.492 4.5396 100.53 4.53969C99.6336 4.53978 98.1535 4.87702 97.5859 5.6436H97.4939H97.4019C96.8067 4.09131 97.2179 1.78192 97.2179 0.124026H92.8022ZM76.7954 1.04395V4.53969H80.2912C80.6656 4.53969 81.2967 4.42194 81.5892 4.71383C82.1071 5.23176 81.7631 7.23784 81.7631 7.94343V17.2347H86.3627V7.94343C86.3627 7.23784 86.0187 5.23176 86.5366 4.71383C86.8291 4.42194 87.4602 4.53969 87.8346 4.53969H91.3303V1.04395H76.7954ZM113.041 12.0831H122.056C122.056 10.1963 122.051 8.38528 120.788 6.84283C118.451 3.98764 113.558 3.68793 110.745 5.99152C109.417 7.07805 108.873 8.37874 108.483 9.99358C108.309 10.7109 108.473 11.4842 108.601 12.1833C109.308 16.0327 112.7 17.4187 116.26 17.4187C117.6 17.4187 119.194 17.132 120.247 16.2228C120.496 16.0088 121.085 15.7823 121.085 15.3949C121.085 15.1573 120.828 14.9644 120.676 14.8123C120.266 14.4008 119.449 13.2221 118.836 13.2111C118.198 13.1997 117.411 13.8601 116.786 14.0416C115.437 14.4334 113.146 13.6899 113.041 12.0831ZM117.824 9.6913H112.857C113.21 7.0407 117.815 6.93812 117.824 9.6913ZM27.6712 10.0593H28.0391C28.1146 9.54632 28.7737 9.13382 29.217 8.90062C30.3421 8.30882 31.9723 7.76699 33.2564 8.07728C34.4585 8.36779 35.6032 8.67837 36.5912 9.48726C38.2759 10.8666 39.2269 13.7128 38.668 15.8282C37.2107 21.3443 29.8718 22.4385 26.9581 17.4891C25.9924 15.8485 25.9566 13.6855 26.6326 11.9391C26.8872 11.2813 27.5039 10.7087 27.6712 10.0593ZM32.1258 10.3086C30.1774 10.8643 28.8217 11.7851 28.4309 13.9386C27.9308 16.6955 30.9049 18.9164 33.4404 18.2968C35.395 17.8192 36.846 15.7794 36.4787 13.7546C36.1628 12.0138 34.0921 9.74778 32.1258 10.3086ZM33.3747 11.7151C33.5329 12.4249 33.7691 13.1417 33.0289 13.6219C32.7092 13.8292 32.2648 13.8242 32.0233 14.1589C31.528 14.8453 31.0832 16.206 29.976 15.2307C29.4715 14.7861 29.633 13.6512 29.8975 13.1134C30.6055 11.6732 31.9278 11.3926 33.3747 11.7151ZM43.034 22.3863H43.126C43.5644 22.7295 44.0159 22.8158 44.2829 23.3806C44.823 24.5232 44.6767 27.5539 42.8582 27.342C41.3016 27.1606 41.3118 24.0921 41.9552 23.1001C42.2236 22.6863 42.6356 22.6105 43.034 22.3863ZM21.3499 23.1641C26.4092 21.941 30.9084 27.1313 30.0391 31.938C29.4766 35.0481 27.0555 37.2584 24.0572 37.9833C19.6538 39.0478 15.1609 35.047 15.1609 30.6657C15.1609 26.9715 17.8758 24.004 21.3499 23.1641ZM76.7954 24.2262V40.417H81.0271V32.3216C81.4917 32.6816 81.7051 33.2644 82.0124 33.7498C82.8495 35.0715 83.6011 36.467 84.498 37.7492C85.1033 38.6141 85.9855 39.5486 87.2302 38.8663C87.7297 38.5924 88.1023 37.4867 88.37 36.9952C88.9689 35.8944 89.6745 34.8083 90.3451 33.7498C90.7048 33.1815 90.9541 32.5446 91.5143 32.1376V40.417H95.746L95.562 24.2262C94.5906 24.2262 92.805 23.8783 91.9301 24.3037C91.2632 24.6278 90.9044 25.9019 90.5291 26.5044C89.6901 27.8519 88.968 29.304 88.0913 30.622C87.554 31.4313 86.6773 32.4422 86.5467 33.4255C85.7215 33.213 85.4023 32.0268 84.9635 31.3769C83.8587 29.7369 82.8743 28.0009 81.8284 26.3204C81.4779 25.7566 81.2028 24.7552 80.6702 24.3471C80.3924 24.1337 79.8836 24.2262 79.5552 24.2262H76.7954ZM114.697 25.1461V28.2739L113.031 28.3951L112.857 29.2858V31.5856H114.697C114.697 33.7854 114.093 37.1902 115.596 39.0338C116.878 40.6046 118.73 40.601 120.584 40.601C121.167 40.601 122.374 40.6161 122.713 39.9968C123.104 39.2818 122.039 37.6689 121.872 36.9212C121.113 37.0223 120.543 37.5717 119.779 37.0383C118.748 36.3172 119.112 34.2109 119.112 33.1495C119.112 32.7577 118.982 32.065 119.286 31.7599C119.756 31.2902 121.423 31.5856 122.056 31.5856V28.2739H119.112V25.1461H114.697ZM22.3743 25.3958C20.0542 26.0257 18.2256 26.9108 17.5938 29.4961C16.6484 33.3649 20.494 36.4707 24.0572 35.5915C26.5119 34.9857 28.2871 32.2739 27.8313 29.7614C27.4263 27.529 25.6251 25.6844 23.3488 25.5092C23.0047 25.4827 22.7222 25.3014 22.3743 25.3958ZM22.6115 26.434H22.7035C22.9445 26.6226 23.2406 26.6767 23.4694 26.8957C25.0558 28.4148 22.0649 28.844 21.4464 29.4699C20.7582 30.1661 21.1048 31.759 19.7597 31.7597C19.5067 31.7598 19.2673 31.6399 19.0238 31.5856C18.9371 31.2034 18.6832 30.8761 18.6613 30.4784C18.5992 29.3523 19.4609 27.7718 20.4254 27.193C21.118 26.7774 21.945 26.8048 22.6115 26.434ZM41.8381 27.354C41.9512 27.8618 42.2127 28.5366 41.9045 29.0319C41.2352 30.108 38.4659 30.0509 37.5935 29.2619C36.7276 28.4787 37.5005 27.065 38.5299 26.991C38.9846 26.9583 39.4505 26.9864 39.9062 26.9864C40.6582 26.9864 41.1358 27.1947 41.8381 27.354ZM45.0844 27.0287C45.8507 26.8257 47.5628 26.7885 48.2335 27.236C49.5406 28.1082 48.5525 29.4283 47.4233 29.7043C46.6504 29.8931 45.1699 29.9013 44.5096 29.3967C43.6043 28.7047 44.0421 27.3046 45.0844 27.0287ZM103.696 27.7876C102.077 28.2533 100.633 28.6393 99.4607 29.962C97.1691 32.5506 97.5353 37.1169 100.323 39.2009C102.306 40.6843 105.226 41.0481 107.586 40.3755C111.706 39.2014 113.478 34.0596 111.136 30.5261C110.136 29.0196 108.47 28.2948 106.801 27.8648C105.931 27.6412 104.574 27.5352 103.696 27.7876ZM129.086 27.7876C127.921 28.1227 126.705 28.399 125.768 29.2294C123.061 31.6259 122.528 36.2471 125.355 38.8296C127.349 40.6519 130.436 41.0489 132.977 40.3759C137.506 39.1765 138.995 33.7015 136.295 30.0907C135.287 28.7442 133.726 28.2603 132.191 27.8648C131.322 27.6412 129.964 27.5352 129.086 27.7876ZM143.95 29.1942C143.95 28.8747 144.049 28.3444 143.829 28.0804C143.465 27.6422 141.905 27.9063 141.375 27.9063C140.957 27.9063 139.955 27.7133 139.766 28.2139C139.401 29.1803 139.719 30.8281 139.719 31.862V40.4173H144.134V35.2657C144.134 33.9105 144.327 32.4693 145.728 31.8471C146.487 31.5103 147.374 31.586 148.182 31.586V27.7223C147.075 27.7223 146.121 27.881 145.128 28.4035C144.694 28.632 144.432 29.07 143.95 29.1942ZM42.8753 29.2382C43.4535 29.1056 44.0592 29.7151 44.2829 30.1884C44.7667 31.2119 44.6985 33.8751 43.2943 34.1379C41.0372 34.5603 40.9959 29.6693 42.8753 29.2382ZM104.512 31.2599C107.91 30.4293 109.022 36.2446 105.931 37.0633C102.197 38.052 100.974 32.1244 104.512 31.2599ZM130.086 31.2599C133.489 30.4281 134.496 36.3812 131.423 37.08C127.617 37.9451 126.517 32.1321 130.086 31.2599ZM35.3332 37.5159C35.8873 37.3694 36.576 37.4736 37.1464 37.4736C41.9372 37.4736 45.9091 41.3681 46.2488 46.1245C46.56 50.4829 43.5156 54.5379 39.328 55.6467C33.6889 57.1401 27.8585 52.5827 27.8585 46.7649C27.8585 42.2422 31.0593 38.645 35.3332 37.5159ZM36.5415 39.7467C34.2551 40.4028 32.0768 41.0502 30.9298 43.4355C30.4932 44.3434 30.0729 45.6702 30.0729 46.6729C30.0729 51.0009 34.425 54.4667 38.592 53.4385C42.6049 52.4483 44.6769 48.5119 43.6365 44.5833C42.9633 42.0412 40.5115 40.1569 37.978 39.8535C37.4694 39.7926 37.0687 39.5954 36.5415 39.7467ZM34.8466 44.6491L34.36 45.6863L33.9267 47.5928C33.5018 47.6876 33.1042 47.8544 32.6557 47.7512C31.5142 47.4889 31.9251 45.9024 32.1283 45.1353C32.4963 43.7457 33.6567 42.4962 34.9671 41.9311C35.8699 41.542 39.0604 41.0918 38.0808 43.1295C37.6918 43.9388 36.6799 43.7342 35.9909 44.0102C35.559 44.1831 35.3171 44.5805 34.8466 44.6491ZM21.2316 42.0733C21.2604 42.5165 21.4147 42.9083 21.4156 43.3612C21.417 44.0338 20.7621 45.8108 19.8806 44.6606C19.5345 44.2088 19.6069 42.3277 20.1061 42.0069C20.4695 41.7734 20.8613 41.9907 21.2316 42.0733ZM19.7597 44.8331V46.305C18.8852 46.3617 18.1748 46.6476 17.3045 46.2631C16.7433 46.0149 16.6363 45.2004 17.2317 44.9107C17.8662 44.6018 19.0599 44.8331 19.7597 44.8331ZM23.9914 44.8331C24.0682 45.1778 24.2682 45.5378 24.0979 45.8893C23.7027 46.7045 22.0288 46.6829 21.404 46.1846C20.8074 45.7086 21.1826 44.8623 21.877 44.8349C22.1518 44.824 22.4286 44.8333 22.7035 44.8333L23.9914 44.8331ZM20.4221 46.1754C21.7635 45.9807 21.8331 49.1073 20.5804 49.235C19.3813 49.3573 19.3587 46.3298 20.4221 46.1754ZM140.271 63.5999C141.334 63.837 142.396 63.7839 143.49 63.7839C143.827 63.7839 144.417 63.8943 144.696 63.6626C145.18 63.2604 144.87 61.3458 144.87 60.7481C144.87 58.5704 145.06 56.2545 144.46 54.1512C144.247 53.4044 143.577 52.8863 143.398 52.1928C142.827 52.0457 142.392 51.5155 141.81 51.3102C139.721 50.5738 137.642 50.9266 135.855 52.1928V46.4892H132.543C132.216 46.4892 131.614 46.3769 131.377 46.6634C131.171 46.9112 131.255 47.3872 131.255 47.6851V50.1689V59.9202V62.588C131.255 63.0105 131.224 63.4889 131.671 63.7063C132.122 63.9256 132.88 63.7839 133.371 63.7839C133.888 63.7839 135.378 64.0386 135.734 63.6096C136.077 63.1967 135.855 61.9985 135.855 61.4841C135.855 59.9877 135.504 57.9788 135.92 56.5427C136.319 55.171 137.778 54.362 139.15 54.8155C140.065 55.1182 140.271 56.254 140.271 57.0684L140.271 63.5999ZM76.7954 47.5932V47.6852V47.7772L77.937 51.1556L80.6168 59.1997L81.5671 62.2201L82.0675 63.6098L83.1429 63.784H85.9027L86.9827 63.6111L87.8714 61.0361L89.3433 56.6205L90.0424 54.0327C90.6864 54.5316 90.7406 55.4996 90.9743 56.2286C91.5272 57.9496 92.0193 59.69 92.5814 61.4041C92.7728 61.9896 92.9981 63.4204 93.586 63.7064C94.4397 64.1219 96.1783 63.784 97.1259 63.784C97.458 63.784 97.9492 63.8727 98.2059 63.6111C98.8682 62.9352 98.9924 61.5374 99.2785 60.6682C100.113 58.1351 100.848 55.5738 101.701 53.0474C102.16 51.6868 102.833 50.2901 103.112 48.8811C103.176 48.5588 103.546 47.9541 103.39 47.6422C103.234 47.3336 102.741 47.4093 102.461 47.4092H100.07C99.7909 47.4093 99.3834 47.3459 99.1782 47.5834C98.6778 48.1627 98.4736 49.5088 98.2565 50.2348C97.6907 52.1257 96.9354 53.953 96.4405 55.8573C96.2915 56.4313 95.9474 56.9297 95.93 57.5284H95.562L94.8674 55.1214L93.2622 49.9463L92.4443 47.5305L91.2383 47.4092H88.2025C88.1575 48.101 87.7352 48.8043 87.5319 49.4722C87.0204 51.1557 86.302 52.8187 85.8521 54.5189C85.6424 55.3116 85.3489 57.0261 84.7068 57.5284C84.394 55.1811 83.0353 52.9484 82.521 50.6221C82.3545 49.8688 82.0399 48.0157 81.4061 47.5301C81.1117 47.3041 80.5478 47.4092 80.1992 47.4092C79.2019 47.4092 77.6933 47.1261 76.7954 47.5932ZM104.025 52.1928C104.028 53.0491 104.515 53.7612 104.89 54.5111C105.007 54.7439 105.139 55.1931 105.428 55.2611C105.791 55.3465 106.425 54.7307 106.801 54.6265C108.306 54.2086 111.36 53.984 111.385 56.2405C109.796 56.2405 108.08 56.0888 106.536 56.4664C105.598 56.6953 104.89 57.4897 104.025 57.7124C103.84 58.5258 103.3 59.2297 103.3 60.1043C103.3 63.6325 107.522 64.3124 110.162 63.5581C110.82 63.3704 111.108 62.6622 111.753 62.4961C111.753 62.8155 111.654 63.3459 111.874 63.6097C112.238 64.0481 113.798 63.784 114.329 63.784C114.726 63.784 115.671 63.9617 115.905 63.5473C116.087 63.2266 115.984 62.6681 115.984 62.3121V59.2763C115.984 57.9713 116.007 56.6151 115.777 55.3363C114.969 50.8674 110.01 50.412 106.352 51.3148C105.542 51.5144 104.822 52.0123 104.025 52.1928ZM125.184 60.4722C123.77 60.6592 122.469 60.7093 121.052 60.4485C120.499 60.3466 119.637 59.6838 119.126 59.7669C118.788 59.8218 118.757 60.1718 118.648 60.4322C118.426 60.9604 117.429 62.3095 118.057 62.797C119.217 63.6969 121.128 63.784 122.516 63.784C125.002 63.784 128.573 63.7519 129.373 60.7216C129.506 60.2155 129.448 59.5243 129.411 59.0039C129.241 56.6229 125.991 56.0696 124.172 55.8692C123.668 55.8138 121.945 55.606 122.116 54.7823C122.211 54.3222 123.139 54.0907 123.532 54.0446C124.997 53.8723 126.422 54.4383 127.76 54.9526C127.939 54.1604 128.504 52.7946 129.047 52.1928V52.1008C128.283 51.2789 126.775 51.1988 125.739 51.077C122.878 50.7409 118.008 51.1491 118.008 55.0446C118.008 55.471 117.936 55.9752 118.075 56.3841C118.773 58.4271 121.225 58.6562 122.992 58.9765C124.05 59.1685 125.359 59.1067 125.184 60.4722ZM111.385 58.6323C111.385 59.0917 111.456 59.6037 111.254 60.0299C110.77 61.0538 109.007 61.5843 108.105 60.8045C107.283 60.0934 107.745 58.9699 108.664 58.6978C108.951 58.6129 109.25 58.6323 109.545 58.6323L111.385 58.6323Z" fill="#3871B6"/>
</svg>
