<svg width="24" height="24" viewBox="0 0 24 24" fill="none" xmlns="http://www.w3.org/2000/svg">
<path d="M12.897 21.968C12.366 21.9696 11.8564 21.7586 11.482 21.382L3.64799 13.547C3.23458 13.1348 3.0226 12.5621 3.06799 11.98L3.56799 5.414C3.63929 4.42638 4.42619 3.64162 5.41399 3.573L11.98 3.073C12.031 3.062 12.083 3.062 12.134 3.062C12.6638 3.06336 13.1717 3.27398 13.547 3.648L21.382 11.482C21.7572 11.8571 21.9681 12.3659 21.9681 12.8965C21.9681 13.4271 21.7572 13.9359 21.382 14.311L14.311 21.382C13.9368 21.7583 13.4277 21.9693 12.897 21.968ZM12.133 5.062L5.56199 5.562L5.06199 12.133L12.897 19.968L19.967 12.898L12.133 5.062ZM8.65399 10.654C7.69983 10.6542 6.87841 9.98036 6.69207 9.04457C6.50574 8.10878 7.0064 7.17168 7.88786 6.80638C8.76933 6.44107 9.78609 6.74931 10.3163 7.54258C10.8466 8.33585 10.7426 9.3932 10.068 10.068C9.69382 10.4443 9.18467 10.6553 8.65399 10.654Z" fill="#3570B5"/>
</svg>
